# xmcd
#
# Track frame offsets:
#	150
#	16867
#	58858
#	94510
#	116317
#	136160
#	163841
#	193909
#	222095
#	246811
#
# Disc length: 3704 seconds
#
# Revision: 0
# Processed by: cddbd v1.5.2PL0 Copyright (c) Steve Scherf et al.
# Submitted via: EZCDAudioConverter 2.1.7.1
#
DISCID=830e760a
DTITLE=Medusa
DYEAR=1900
DGENRE=
TTITLE0=Strangulation
TTITLE1=Transient Amplitude
TTITLE2=Frustration's Fool
TTITLE3=Temptress
TTITLE4=Feelings Of Indifference
TTITLE5=Black Wizard
TTITLE6=Unknown Fear
TTITLE7=Isle Of Let Be
TTITLE8=Shattered (Father Bother)
TTITLE9=Think Harder
EXTD=
EXTT0=
EXTT1=
EXTT2=
EXTT3=
EXTT4=
EXTT5=
EXTT6=
EXTT7=
EXTT8=
EXTT9=
PLAYORDER=
